<svg viewBox="0 0 512 512" xmlns="http://www.w3.org/2000/svg"><g fill="#838383" fill-rule="evenodd"><path d="M72.745 276.48l-20.216 20.18c-4.2 4.16-4.22 10.99-.03 15.19l8.21 8.24c-2.95 5.49-5.323 11.33-7.05 17.43l-11.835-.03c-5.92 0-10.759 4.81-10.759 10.74L31 376.8c-.03 5.92 4.81 10.77 10.703 10.77l12.28.02c1.78 5.92 4.16 11.59 7.05 16.92l-8.75 8.75c-4.2 4.16-4.22 10.99-.03 15.19l20.13 20.26c4.19 4.16 11.01 4.19 15.2.02l8.77-8.76c5.29 2.92 10.95 5.32 16.84 7.11v12.3c-.03 5.92 4.81 10.77 10.7 10.8l28.56.05c5.88 0 10.73-4.82 10.75-10.75l.02-11.85c6.08-1.73 11.92-4.09 17.41-6.98l8.21 8.24c4.16 4.16 11.01 4.19 15.2.02l20.21-20.19c4.19-4.17 4.19-11.03.02-15.23l-7.76-7.8c3.17-5.62 5.74-11.6 7.67-17.86l10.75.02c5.91 0 10.75-4.82 10.75-10.75l.05-28.58c.02-5.93-4.82-10.78-10.74-10.8h-10.31c-1.82-6.5-4.36-12.68-7.51-18.46l7.24-7.23c4.19-4.17 4.19-11.03.02-15.2L204.3 276.56c-4.2-4.2-11.02-4.2-15.21-.03l-7.25 7.22c-5.78-3.18-11.92-5.73-18.41-7.57l.02-10.35c.02-5.9-4.82-10.75-10.71-10.78l-28.57-.06c-5.92 0-10.759 4.81-10.759 10.74l-.03 10.77c-6.26 1.89-12.26 4.45-17.866 7.59l-7.76-7.8c-4.2-4.2-11.015-4.2-15.21-.03Z"/><path fill="#595959" d="M154.262 384.764c-1.56 16.46-5.24 31.91-10.59 45.69 -5.04 12.86-11.53 24.29-19.15 33.76 -1.48 1.81-3.01 3.57-4.56 5.24 1.21.51 2.57.76 3.96.79l28.56.05c4.21 0 7.9-2.47 9.65-6.04 .7-1.42 1.1-3.04 1.1-4.71l.02-11.85c6.08-1.73 11.92-4.09 17.41-6.98l8.21 8.24c4.16 4.16 11.01 4.19 15.2.02l20.21-20.19c4.19-4.17 4.19-11.03.02-15.23l-7.76-7.8c3.17-5.62 5.74-11.6 7.67-17.86l10.75.02c5.91 0 10.75-4.82 10.75-10.75l.05-28.58c.02-5.93-4.82-10.78-10.74-10.8h-10.31c-1.82-6.5-4.36-12.68-7.51-18.46l7.24-7.23c4.19-4.17 4.19-11.03.02-15.2l-20.131-20.27c-4.2-4.2-11.02-4.2-15.21-.03l-7.25 7.22c-5.78-3.18-11.92-5.73-18.41-7.57l.02-10.35c.02-5.9-4.82-10.75-10.71-10.78l-28.57-.06c-2.41 0-4.68.79-6.46 2.18 -.94.68-1.76 1.53-2.41 2.49 18.94 17.66 32.84 46.34 37.71 80.13 1.41.93 2.77 1.98 3.99 3.17 5.15 4.96 8.35 11.9 8.32 19.61 -.03 7.71-3.23 14.65-8.41 19.58 -.88.85-1.84 1.67-2.86 2.38Z"/><path fill="#F9F7F7" d="M138.491 335.611c-14.98-.03-27.125 12.1-27.16 27.07 -.03 14.99 12.06 27.15 27.04 27.18 14.97.05 27.125-12.08 27.15-27.08 .02-14.97-12.09-27.16-27.04-27.19Z"/><path fill="#E2E2E2" d="M141.35 362.767c0 10.63-6.15 19.81-15.07 24.23 3.65 1.84 7.75 2.86 12.09 2.86 5.91.02 11.41-1.88 15.88-5.11 1.01-.71 1.98-1.54 2.86-2.39 5.18-4.94 8.381-11.88 8.4-19.59 .02-7.71-3.18-14.66-8.33-19.62 -1.22-1.2-2.58-2.24-4-3.18 -4.25-2.78-9.29-4.37-14.73-4.4 -4.36 0-8.47 1.02-12.09 2.83 8.89 4.45 14.97 13.66 14.94 24.32Z"/><path fill="#FE9737" d="M223.066 394.26h54.732H332.5c0-88.08 85.113-99.47 85-194.15 -.09-90.255-69.91-134.646-139.71-133.654 -69.83-1-139.618 43.399-139.731 133.654 -.12 94.67 85 106.07 85 194.14Z"/><path d="M232.268 442.449l41.99-16.84 49.06 16.83v31.01c0 17.06-13.96 31.03-31.01 31.03h-29.08c-17.05 0-30.976-13.98-30.976-31.04Z"/><path fill="#F9F7F7" d="M216.21 383.148h123.16c5.49 0 9.96 4.47 9.96 9.97v39.31c0 5.49-4.48 10-9.97 10H216.19c-5.5 0-10-4.51-10-10.01v-39.32c0-5.5 4.5-9.98 9.99-9.98Z"/><path fill="#595959" d="M309.368 442.449h-77.1v19.3h55.12c13.16 0 13.95 3.74 13.95 15.5v4.62 10.88c0 3.82-.71 7.51-2.01 10.91 13.7-3.21 23.98-15.57 23.98-30.22v-10.86 -20.16Z"/><path fill="#F36B37" d="M240.196 70.4c58.18 6.2 111.84 44.53 119.51 115.22 .62 5.64.93 11.5.93 17.54 .02 8.78-.71 16.86-2.04 24.35 -1.56 8.81-3.94 16.78-6.94 24.18 -2.33 5.72-5.02 11.11-7.96 16.18 -22.85 39.43-61.36 62.75-67.303 115.257h36.12c3.42-15.28 11.04-29.77 22.9-41.65 5.4-5.42 11.38-9.95 17.69-13.61 25.2-37.59 64.44-63.47 64.358-127.786 -.09-90.255-69.91-134.646-139.71-133.654 -12.69-.21-25.34 1.13-37.6 3.93Z"/><path fill="#E2E2E2" d="M276.41 383.148c-.83 3.65-1.39 7.37-1.73 11.11 -.97 10.94.17 22.05 3.42 32.65 1.5 4.96 3.48 9.78 5.88 14.42l.59 1.1h24.77 11.35c-.2-.37-.4-.74-.6-1.11 -7.62-14.63-10.74-31.04-9.32-47.084 .34-3.75.9-7.46 1.72-11.12h-36.13Z"/></g><g><path d="M277.79 36.714c-4.15 0-7.5-3.36-7.5-7.5V7.494c0-4.143 3.35-7.5 7.5-7.5 4.14 0 7.5 3.35 7.5 7.5v21.71c0 4.14-3.36 7.5-7.5 7.5Z"/><path d="M197.38 56.018c-1.93 0-3.85-.74-5.31-2.2l-15.35-15.37c-2.93-2.94-2.93-7.68 0-10.61 2.93-2.93 7.67-2.93 10.6 0l15.34 15.364c2.92 2.93 2.92 7.67-.01 10.6 -1.47 1.46-3.39 2.19-5.3 2.19Z"/><path d="M358.182 56.018c-1.92 0-3.84-.74-5.3-2.2 -2.94-2.93-2.94-7.68-.01-10.61l15.34-15.364c2.92-2.94 7.67-2.94 10.6-.01 2.93 2.92 2.93 7.67 0 10.6l-15.35 15.36c-1.47 1.46-3.39 2.2-5.31 2.2Z"/></g><g fill="#97DA7B" fill-rule="evenodd"><path d="M335.445 462.207c33.298 33.33 87.293 33.33 120.59 0 33.298-33.34 33.298-87.37 0-120.7 -33.298-33.34-87.293-33.34-120.6 0 -33.298 33.33-33.298 87.36 0 120.7Z"/><path fill="#68CA44" d="M425.258 462.207c33.298-33.34 33.298-87.37 0-120.7 -12.72-12.73-28.46-20.61-44.91-23.613 26.61-4.88 55.1 3 75.68 23.613 33.298 33.33 33.298 87.36 0 120.7 -20.59 20.6-49.07 28.488-75.69 23.613 16.45-3.01 32.19-10.89 44.9-23.613Z"/></g><g><path d="M427.05 384.16l-26-26.03c-.13-.13-.24-.23-.34-.31 -1.33-1.18-3.07-1.9-4.98-1.9 -1.94 0-3.71.74-5.04 1.95 -.06.04-.13.1-.19.16 -.03.02-.07.05-.09.08l-26.02 26.01c-2.93 2.92-2.93 7.67 0 10.6 1.46 1.46 3.38 2.19 5.3 2.19 1.91 0 3.83-.74 5.3-2.2l13.21-13.22v58.71c0 4.14 3.35 7.5 7.5 7.5 4.14 0 7.5-3.36 7.5-7.5v-58.7l13.18 13.2c1.46 1.46 3.38 2.19 5.3 2.19 1.91 0 3.83-.74 5.3-2.2 2.92-2.93 2.93-7.68 0-10.61Z"/><path d="M138.505 328.111c-.03 0-.05 0-.07 0 -19.05 0-34.565 15.48-34.61 34.55 -.04 19.09 15.45 34.66 34.512 34.69h.13c9.18 0 17.81-3.57 24.33-10.05 6.56-6.54 10.19-15.24 10.21-24.52 .03-19.1-15.46-34.67-34.53-34.7Zm13.73 48.577c-3.69 3.66-8.57 5.67-13.78 5.67 -.03 0-.06 0-.08 0 -10.81-.03-19.58-8.85-19.56-19.67 .02-10.81 8.81-19.59 19.6-19.59h.03c10.8.02 19.57 8.84 19.55 19.67 -.02 5.26-2.07 10.2-5.79 13.9Z"/><path d="M482.509 368.93c-1.47-3.87-5.8-5.83-9.67-4.36 -3.88 1.46-5.83 5.79-4.37 9.66 10.81 28.62 3.84 61.07-17.74 82.68 -14.69 14.7-34.22 22.8-54.99 22.8 -20.77 0-40.3-8.1-54.99-22.8 -2.22-2.22-4.28-4.55-6.16-6.96 -1.34-1.69-2.59-3.43-3.76-5.2 -2.02-3.05-3.79-6.22-5.32-9.47 -.06-.11-.11-.22-.16-.33 -6.51-13.91-8.69-29.36-6.54-44.3 .74-5.09 1.97-10.12 3.71-15 1.73-4.86 3.95-9.59 6.68-14.09 3.17-5.26 7.02-10.22 11.55-14.75 5.31-5.32 11.27-9.78 17.69-13.3 11.3-6.21 24.05-9.5 37.3-9.5 20.77 0 40.3 8.09 54.99 22.8 2.93 2.93 7.68 2.93 10.61 0 2.93-2.92 2.93-7.67 0-10.6 -8.76-8.77-18.97-15.57-30.08-20.18 -11.11-4.61-23.13-7.02-35.52-7.02 -7 0-13.89.77-20.56 2.27 1.48-1.8 2.97-3.61 4.47-5.42 22.33-26.96 45.41-54.84 45.35-105.75 -.04-40.33-13.63-75.02-39.32-100.32 -26.92-26.52-66.26-41.37-107.88-40.83 -.81-.01-1.61-.02-2.41-.02 -44.66 0-85.37 17.32-111.99 47.74 -2.73 3.11-2.41 7.85.7 10.58 3.12 2.73 7.86 2.41 10.59-.7 24.22-27.67 61.8-43.18 103-42.6h.21c37.7-.51 73.15 12.78 97.26 36.52 22.76 22.42 34.81 53.42 34.84 89.64 .06 45.5-20.32 70.12-41.9 96.17 -6.91 8.34-13.9 16.78-20.19 25.97 -6.39 3.86-12.36 8.53-17.77 13.95 -11.36 11.38-19.15 24.99-23.38 39.44H283.9V236.557h15.57c4.14 0 7.5-3.36 7.5-7.5 0-4.15-3.36-7.5-7.5-7.5h-47.03c-4.15 0-7.5 3.35-7.5 7.5 0 4.14 3.35 7.5 7.5 7.5h16.45V375.65h-39.64c-1.73-12.06-5.09-22.64-9.5-32.23 -.9-1.99-1.86-3.93-2.85-5.83 -8.12-15.54-18.88-28.54-29.45-41.3 -1.38-1.66-2.75-3.32-4.11-4.98 -11.07-13.45-21.48-26.9-28.55-43.46h-.01c-5.71-13.35-9.26-28.72-9.23-47.73 .02-20.93 3.98-40.05 11.76-56.83 1.74-3.76.11-8.22-3.65-9.96 -3.76-1.74-8.22-.11-9.96 3.65 -8.7 18.76-13.13 40-13.15 63.13 -.03 18.58 3.03 34.09 8.02 47.61l-14.23-.03c-10.07 0-18.26 8.19-18.26 18.23l-.01 5.39c-3.06 1.12-6.05 2.39-8.96 3.79l-3.87-3.89c-7.11-7.11-18.68-7.13-25.8-.05 -.01.01-.01.01-.01.01l-20.21 20.17c-3.45 3.44-5.36 8.02-5.37 12.91 -.01 4.88 1.88 9.46 5.31 12.9l4.42 4.43c-1.28 2.76-2.42 5.58-3.42 8.45l-6.35-.02c-10.07 0-18.26 8.18-18.26 18.23l-.06 28.55c-.02 4.87 1.86 9.47 5.32 12.93 3.44 3.47 8.02 5.38 12.87 5.38l6.89.01c.99 2.71 2.1 5.37 3.32 7.98l-4.9 4.9c-3.45 3.43-5.36 8.02-5.36 12.9 -.01 4.88 1.88 9.47 5.3 12.9l20.17 20.3c7.11 7.08 18.68 7.09 25.79.02l4.91-4.91c2.59 1.24 5.23 2.35 7.91 3.34v6.88c-.04 10.06 8.11 18.29 18.19 18.34l28.59.05c10.02 0 18.21-8.16 18.26-18.22l.01-6.37c2.85-.99 5.65-2.12 8.4-3.37l4.43 4.45c7.1 7.11 18.68 7.13 25.81.03l4.54-4.53c.73.1 1.49.15 2.25.15h8.56v23.51c0 21.25 17.26 38.54 38.47 38.54h29.08c21.23 0 38.51-17.29 38.51-38.54v-5.28c17.44 17.12 40.45 26.53 64.91 26.53 24.78 0 48.08-9.66 65.6-27.2 25.74-25.77 34.05-64.46 21.17-98.58Zm-283.79 24.2v39.31c0 3.26.89 6.32 2.46 8.94l-2.34 2.33c-1.25 1.24-3.37 1.24-4.61 0l-8.21-8.25c-2.32-2.34-5.89-2.88-8.8-1.35 -5.1 2.68-10.47 4.83-15.97 6.4 -3.22.91-5.45 3.85-5.45 7.19l-.03 11.83c-.01 1.78-1.5 3.28-3.25 3.28l-28.55-.05c-1.76-.01-3.24-1.51-3.24-3.3v-12.3c0-3.31-2.16-6.22-5.32-7.18 -5.31-1.61-10.5-3.8-15.4-6.51 -1.14-.63-2.38-.93-3.62-.93 -1.94 0-3.86.75-5.3 2.19l-8.77 8.75c-1.25 1.24-3.37 1.23-4.59.01L57.57 423.2c-.82-.81-.94-1.78-.94-2.28 .01-.51.13-1.48.97-2.31l8.75-8.76c2.34-2.35 2.87-5.96 1.29-8.87 -2.68-4.94-4.85-10.16-6.47-15.52 -.95-3.16-3.86-5.33-7.16-5.33l-12.31-.03c-1.13 0-1.9-.6-2.25-.96 -.36-.35-.96-1.13-.95-2.3l.06-28.59c0-1.78 1.46-3.24 3.24-3.24l11.83.03h.02c3.35 0 6.3-2.23 7.22-5.46 1.56-5.5 3.72-10.86 6.44-15.93 1.56-2.91 1.04-6.5-1.29-8.84l-8.22-8.25c-.82-.82-.94-1.79-.94-2.29s.13-1.47.96-2.3l20.21-20.18c1.27-1.26 3.34-1.25 4.59.01l7.76 7.79c2.38 2.39 6.05 2.9 8.99 1.25 5.12-2.87 10.63-5.21 16.37-6.96 3.16-.95 5.32-3.86 5.32-7.15l.03-10.79c0-1.79 1.46-3.25 3.25-3.25l20.89.04c8.51 16.36 19.69 29.86 30.68 43.13 17.12 20.69 33.37 40.32 38.18 69.93 -8.65 1.04-15.38 8.41-15.38 17.34Zm33.55 41.82h-16.06c-1.35 0-2.49-1.15-2.49-2.51v-39.31c0-1.06.7-1.98 1.65-2.33 .26-.1.54-.15.84-.15h87.48c-1.79 14.88 0 30.12 5.38 44.3Zm83.56 38.51c0 12.98-10.55 23.54-23.51 23.54h-29.08c-12.94 0-23.47-10.56-23.47-23.54v-23.51h76.06Z"/></g></svg>