<svg viewBox="0 0 512 512" xmlns="http://www.w3.org/2000/svg"><g transform="scale(1.00004)"><path fill="#E9F5FF" d="M319.239 405.217c0 52.02-40.02 94.69-90.95 98.91 -3.2.27-6.45.39-9.73.34 -53.08-.74-96.56-43.77-97.82-96.84 -.89-37.59 19.12-70.59 49.24-88.18V57.49c0-13.8 5.6-26.3 14.64-35.35 5.57-5.57 12.44-9.83 20.12-12.28 4.8-1.54 9.92-2.37 15.24-2.37 27.61 0 50 22.39 50 50v261.95c29.46 17.22 49.26 49.18 49.26 85.77Z"/><path fill="#BDE2EF" d="M319.239 405.217c0 52.02-40.02 94.69-90.95 98.91 -.2-2.55-.17-4.96.09-7.2 35.75-15.01 60.86-50.36 60.86-91.56 0-36.59-19.8-60.56-49.26-77.77V57.64c0-22.48-14.83-41.48-35.24-47.78 4.8-1.54 9.92-2.37 15.24-2.37 27.61 0 50 22.39 50 50v261.95c29.46 17.22 49.26 49.18 49.26 85.77Z"/><path fill="#FF6E6E" d="M254.839 345.49c-9.2-5.38-14.86-15.24-14.86-25.9V57.64c0-11.03-8.98-20-20-20 -2.33 0-4.56.4-6.64 1.13 -7.78 2.75-13.36 10.17-13.36 18.87v261.95c0 10.66-5.66 20.52-14.87 25.9 -21.8 12.74-34.98 36.33-34.38 61.57 .43 17.86 7.74 34.71 20.6 47.43 12.85 12.73 29.77 19.88 47.65 20.12 13.56.17 26.56-3.49 37.76-10.53 4.24-2.66 8.22-5.8 11.87-9.4 13.3-13.12 20.63-30.64 20.63-49.32 0-24.53-13.18-47.47-34.4-59.87Z"/><path fill="#F44E92" d="M254.839 345.49c-9.2-5.38-14.86-15.24-14.86-25.9V57.64c0-11.03-8.98-20-20-20 -2.33 0-4.56.4-6.64 1.13 4.07 3.66 6.64 8.97 6.64 14.87v284.95c0 10.66 5.66 20.52 14.86 25.9 21.22 12.4 34.4 35.34 34.4 59.87 0 14.43-4.37 28.17-12.5 39.72 4.24-2.66 8.22-5.8 11.87-9.4 13.3-13.12 20.63-30.64 20.63-49.32 0-24.53-13.18-47.47-34.4-59.87Z"/><path fill="#4F667A" d="M239.97 57.647v77.54h-40V57.64c0-8.7 5.58-16.12 13.36-18.87 2.08-.73 4.31-1.13 6.64-1.13 11.02 0 20 8.97 20 20Z"/><path fill="#3A5366" d="M219.97 37.647c-2.33 0-4.56.4-6.64 1.13 4.07 3.66 6.64 8.97 6.64 14.87v81.54h20V57.64c0-11.03-8.98-20-20-20Z"/><g><path d="M315.49 61.06h75.774c4.14 0 7.5-3.36 7.5-7.5 0-4.15-3.36-7.5-7.5-7.5H315.49c-4.15 0-7.5 3.35-7.5 7.5 0 4.14 3.35 7.5 7.5 7.5Z"/><path d="M315.49 95.689h37.887c4.14 0 7.5-3.36 7.5-7.5 0-4.15-3.36-7.5-7.5-7.5H315.49c-4.15 0-7.5 3.35-7.5 7.5 0 4.14 3.35 7.5 7.5 7.5Z"/><path d="M391.267 115.689h-75.774c-4.15 0-7.5 3.35-7.5 7.5 0 4.14 3.35 7.5 7.5 7.5h75.774c4.14 0 7.5-3.36 7.5-7.5 0-4.15-3.36-7.5-7.5-7.5Z"/><path d="M315.49 165.317h37.887c4.14 0 7.5-3.36 7.5-7.5 0-4.15-3.36-7.5-7.5-7.5H315.49c-4.15 0-7.5 3.35-7.5 7.5 0 4.14 3.35 7.5 7.5 7.5Z"/><path d="M391.267 184.803h-75.774c-4.15 0-7.5 3.35-7.5 7.5 0 4.14 3.35 7.5 7.5 7.5h75.774c4.14 0 7.5-3.36 7.5-7.5 0-4.15-3.36-7.5-7.5-7.5Z"/><path d="M315.49 234.43h37.887c4.14 0 7.5-3.36 7.5-7.5 0-4.15-3.36-7.5-7.5-7.5H315.49c-4.15 0-7.5 3.35-7.5 7.5 0 4.14 3.35 7.5 7.5 7.5Z"/><path d="M391.267 254.568h-75.774c-4.15 0-7.5 3.35-7.5 7.5 0 4.14 3.35 7.5 7.5 7.5h75.774c4.14 0 7.5-3.36 7.5-7.5 0-4.15-3.36-7.5-7.5-7.5Z"/><path d="M353.38 289.197h-37.887c-4.15 0-7.5 3.35-7.5 7.5 0 4.14 3.35 7.5 7.5 7.5h37.887c4.14 0 7.5-3.36 7.5-7.5 0-4.15-3.36-7.5-7.5-7.5Z"/><path d="M277.47 314.249V121.01c0-4.15-3.36-7.5-7.5-7.5 -4.15 0-7.5 3.35-7.5 7.5V318.44c0 2.66 1.41 5.13 3.71 6.47 28.09 16.41 45.54 47.17 45.54 80.293 0 24.75-9.71 47.95-27.34 65.339 -17.63 17.37-40.97 26.774-65.739 26.41 -23.73-.33-46.16-9.79-63.17-26.63 -17.02-16.85-26.7-39.18-27.256-62.9 -.81-34.03 16.63-65.654 45.51-82.529 2.3-1.35 3.71-3.82 3.71-6.48V57.47c0-23.44 19.06-42.5 42.5-42.5 23.43 0 42.5 19.06 42.5 42.5v28.68c0 4.14 3.35 7.5 7.5 7.5 4.14 0 7.5-3.36 7.5-7.5V57.46c0-31.706-25.8-57.5-57.5-57.5 -31.71 0-57.5 25.794-57.5 57.5V314.21c-31.38 20.1-50.134 55.553-49.232 93.56 .65 27.61 11.91 53.6 31.7 73.195 19.78 19.58 45.89 30.58 73.51 30.96 .51 0 1.02.01 1.53.01 28.24 0 54.81-10.89 74.94-30.75 20.5-20.23 31.8-47.23 31.8-76.02 -.01-36.947-18.77-71.41-49.27-90.97Z"/><path d="M188.89 351.97c11.46-6.7 18.583-19.11 18.583-32.38v-24.37c0-4.15-3.36-7.5-7.5-7.5 -4.15 0-7.5 3.35-7.5 7.5v24.36c0 7.96-4.28 15.41-11.15 19.42 -24.16 14.11-38.76 40.25-38.1 68.22 .47 19.81 8.57 38.48 22.81 52.58 14.24 14.09 33 22.01 52.834 22.28 .34 0 .68 0 1.02 0 20.35 0 39.49-7.83 53.96-22.11 14.74-14.55 22.86-33.96 22.86-54.66 0-27.19-14.61-52.61-38.12-66.35 -6.88-4.02-11.15-11.47-11.15-19.43V57.58c0-15.17-12.34-27.5-27.5-27.5 -15.17 0-27.5 12.33-27.5 27.5v202.42c0 4.14 3.35 7.5 7.5 7.5 4.14 0 7.5-3.36 7.5-7.5V142.62h25v176.907c0 13.27 7.12 25.68 18.58 32.37 18.92 11.05 30.68 31.51 30.68 53.39 0 16.66-6.54 32.27-18.4 43.97 -11.85 11.67-27.56 18.02-44.26 17.77 -15.93-.23-31.02-6.6-42.482-17.95 -11.47-11.36-18-26.37-18.37-42.29 -.54-22.52 11.21-43.553 30.66-54.92ZM207.47 127.68V57.63c0-6.9 5.6-12.5 12.5-12.5 6.89 0 12.5 5.6 12.5 12.5v70.04Z"/></g></g></svg>