<svg viewBox="0 0 512 512" xmlns="http://www.w3.org/2000/svg"><g transform=""><path fill="#8BBBD3" d="M341.181 210.9H170.81v-37.46c0-5.59 4.53-10.12 10.11-10.12h150.12c5.58 0 10.11 4.53 10.11 10.11v37.45Z"/><path fill="#6FABC9" d="M341.183 173.447v37.45h-27.52v-37.46c0-5.59-4.54-10.12-10.12-10.12h27.51c5.58 0 10.11 4.53 10.11 10.11Z"/><path fill="#31A7FB" d="M132.526 203.813H82.58l5.07-45.76c.56-5.125 4.9-9.01 10.05-9.01h19.68c5.15 0 9.488 3.87 10.05 9Z"/><path fill="#1C96F9" d="M132.529 203.8h-23.94l-5.08-45.75c-.48-4.41-3.75-7.89-7.92-8.78 .69-.15 1.4-.23 2.13-.23h19.68c5.15 0 9.49 3.88 10.05 9.01Z"/><path fill="#FB8627" d="M429.41 203.813h-49.94l5.07-45.76c.56-5.125 4.9-9.01 10.05-9.01h19.68c5.15 0 9.488 3.87 10.05 9Z"/><path fill="#F2671F" d="M429.409 203.8h-23.94l-5.07-45.75c-.49-4.41-3.75-7.89-7.93-8.78 .69-.15 1.4-.23 2.13-.23h19.68c5.16 0 9.49 3.88 10.06 9.01Z"/><path fill="#8BBBD3" d="M439.618 504.49H72.37c-5.59 0-10.12-4.53-10.12-10.12V227.35H449.73v267.02c0 5.58-4.53 10.11-10.12 10.11Z"/><g fill="#6FABC9"><path d="M137.671 377.917v54.72c0 5.58 4.53 10.11 10.11 10.11h216.42c5.58 0 10.11-4.53 10.11-10.12v-54.73Z"/><path d="M62.26 227.36h387.474v39.03H62.26Z"/><path d="M449.739 227.35v267.02c0 5.59-4.53 10.12-10.12 10.12h-30.44c5.58 0 10.11-4.53 10.11-10.12V227.35Z"/></g><path fill="#D9E8EF" d="M449.739 459.41v34.96c0 5.59-4.53 10.12-10.12 10.12H72.37c-5.59 0-10.12-4.53-10.12-10.12v-34.96Z"/><path fill="#BAD5E4" d="M449.739 459.41v34.96c0 5.59-4.53 10.12-10.12 10.12h-30.44c5.58 0 10.11-4.53 10.11-10.12v-34.96Z"/><path fill="#0D5F7F" d="M457.91 243.376H54.08c-5.59 0-10.12-4.53-10.12-10.12V210.75c0-5.59 4.53-10.12 10.11-10.12H457.9c5.58 0 10.11 4.53 10.11 10.11v22.506c0 5.58-4.53 10.11-10.12 10.11Z"/><path fill="#094C66" d="M468.029 210.748v22.51c0 5.59-4.53 10.12-10.12 10.12h-32.97c5.59 0 10.12-4.53 10.12-10.12v-22.51c0-5.58-4.53-10.11-10.12-10.11h32.97c5.59 0 10.12 4.53 10.12 10.11Z"/><path fill="#EAF6FF" d="M364.209 419.105H147.78c-5.59 0-10.12-4.53-10.12-10.12V293.82c0-5.59 4.53-10.12 10.11-10.12h216.42c5.58 0 10.11 4.53 10.11 10.11v115.15c0 5.58-4.53 10.11-10.12 10.11Z"/><path fill="#BAD5E4" d="M374.329 293.828v115.16c0 5.59-4.53 10.12-10.12 10.12h-30.11c5.58 0 10.11-4.53 10.11-10.12v-115.16c0-5.59-4.53-10.12-10.11-10.12h30.11c5.59 0 10.12 4.53 10.12 10.12Z"/><path fill="#0D5F7F" d="M374.329 391.558v17.43c0 5.59-4.53 10.12-10.12 10.12H147.78c-5.59 0-10.12-4.53-10.12-10.12v-17.43Z"/><path fill="#094C66" d="M374.329 391.558v17.43c0 5.59-4.53 10.12-10.12 10.12h-30.11c5.58 0 10.11-4.53 10.11-10.12v-17.43Z"/><path fill="#FC9744" d="M255.99 7.5a61.48 61.48 0 1 0 0 122.97 61.48 61.48 0 1 0 0-122.98Z"/><path fill="#FB8627" d="M317.48 68.99c0 33.958-27.53 61.49-61.5 61.49 -5.19 0-10.24-.65-15.05-1.86 26.67-6.72 46.42-30.88 46.42-59.637 0-28.76-19.76-52.918-46.423-59.637 4.81-1.21 9.86-1.86 15.04-1.86 33.96 0 61.49 27.53 61.49 61.49Z"/><path fill="#31A7FB" d="M105.93 42.54a37.69 37.69 0 1 0 0 75.38 37.69 37.69 0 1 0 0-75.39Z"/><path fill="#1C96F9" d="M143.625 80.232c0 20.82-16.88 37.69-37.69 37.69 -6.01 0-11.69-1.4-16.73-3.9 16.48-2.43 29.13-16.64 29.13-33.79s-12.65-31.36-29.13-33.79c5.04-2.5 10.72-3.9 16.73-3.9 20.81 0 37.69 16.87 37.69 37.69Z"/><path fill="#FB8627" d="M406.06 42.54a37.69 37.69 0 1 0 0 75.38 37.69 37.69 0 1 0 0-75.39Z"/><path fill="#F2671F" d="M443.758 80.232c0 20.82-16.88 37.69-37.69 37.69 -6.01 0-11.69-1.4-16.73-3.9 16.48-2.43 29.13-16.64 29.13-33.79s-12.65-31.36-29.13-33.79c5.04-2.5 10.72-3.9 16.73-3.9 20.81 0 37.69 16.87 37.69 37.69Z"/><g><path d="M457.91 193.134h-22.137l-3.99-35.905c-1-8.94-8.53-15.69-17.52-15.69h-19.69c-9.01 0-16.53 6.74-17.51 15.68l-3.99 35.9h-24.44v-19.69c0-9.72-7.91-17.62-17.62-17.62H180.88c-9.72 0-17.62 7.9-17.62 17.61v19.68h-24.44l-3.98-35.9c-.98-8.95-8.51-15.7-17.506-15.7H97.65c-8.99 0-16.52 6.74-17.52 15.68l-3.99 35.9H54c-9.72 0-17.62 7.9-17.62 17.61v22.506c0 9.71 7.9 17.61 17.61 17.61h.67v243.5c0 9.71 7.9 17.62 17.62 17.62h367.24c9.71 0 17.62-7.91 17.62-17.62V352.71c0-4.15-3.36-7.5-7.5-7.5 -4.15 0-7.5 3.35-7.5 7.5v99.12h-60.42V293.749c0-9.72-7.91-17.62-17.62-17.62h-50.2c-4.15 0-7.5 3.35-7.5 7.5 0 4.14 3.35 7.5 7.5 7.5h50.2c1.44 0 2.61 1.17 2.61 2.61v90.231H145.05V293.73c0-1.45 1.17-2.62 2.61-2.62h133.55c4.14 0 7.5-3.36 7.5-7.5 0-4.15-3.36-7.5-7.5-7.5H147.65c-9.72 0-17.62 7.9-17.62 17.61V451.81H69.61V250.77h48.26c4.14 0 7.5-3.36 7.5-7.5 0-4.15-3.36-7.5-7.5-7.5H53.94c-1.45 0-2.62-1.18-2.62-2.62V210.64c0-1.45 1.17-2.62 2.61-2.62H457.76c1.44 0 2.61 1.17 2.61 2.61v22.506c0 1.44-1.18 2.61-2.62 2.61H150.51c-4.15 0-7.5 3.35-7.5 7.5 0 4.14 3.35 7.5 7.5 7.5H442.07V320c0 4.14 3.35 7.5 7.5 7.5 4.14 0 7.5-3.36 7.5-7.5v-69.26h.67c9.71 0 17.61-7.91 17.61-17.62V210.61c-.01-9.72-7.91-17.62-17.62-17.62Zm-91.09 205.92v9.92c0 1.44-1.18 2.61-2.62 2.61H147.78c-1.45 0-2.62-1.18-2.62-2.62v-9.93ZM145.16 426.37c.85.12 1.72.21 2.61.21h216.42c.89 0 1.76-.09 2.61-.22v25.52H145.14Zm-41.64 40.52v7.76c0 4.14 3.35 7.5 7.5 7.5 4.14 0 7.5-3.36 7.5-7.5v-7.77h11.64v7.76c0 4.14 3.35 7.5 7.5 7.5 4.14 0 7.5-3.36 7.5-7.5v-7.77h11.63v7.76c0 4.14 3.35 7.5 7.5 7.5 4.14 0 7.5-3.36 7.5-7.5v-7.77h168.37v7.76c0 4.14 3.35 7.5 7.5 7.5 4.14 0 7.5-3.36 7.5-7.5v-7.77h11.63v7.76c0 4.14 3.35 7.5 7.5 7.5 4.14 0 7.5-3.36 7.5-7.5v-7.77h11.64v7.76c0 4.14 3.35 7.5 7.5 7.5 4.14 0 7.5-3.36 7.5-7.5v-7.77h33.77v27.46c0 1.44-1.18 2.62-2.62 2.62H72.34c-1.45 0-2.62-1.18-2.62-2.62v-27.46ZM391.99 158.84c.14-1.33 1.26-2.33 2.59-2.33h19.68c1.33 0 2.45 1 2.6 2.33l3.79 34.25h-32.48ZM178.3 173.42c0-1.45 1.17-2.62 2.61-2.62h150.12c1.44 0 2.61 1.17 2.61 2.61v19.68H178.28Zm-83.21-14.57c.14-1.34 1.26-2.34 2.6-2.34h19.68c1.33 0 2.44 1 2.59 2.33l3.79 34.25H91.27Z"/><path d="M162.88 313.312v50.33c0 4.14 3.35 7.5 7.5 7.5 4.14 0 7.5-3.36 7.5-7.5v-50.34c0-4.15-3.36-7.5-7.5-7.5 -4.15 0-7.5 3.35-7.5 7.5Z"/><path d="M199.248 346.671h29.49c4.14 0 7.5-3.36 7.5-7.5 0-4.15-3.36-7.5-7.5-7.5h-29.5c-4.15 0-7.5 3.35-7.5 7.5 0 4.14 3.35 7.5 7.5 7.5Z"/><path d="M199.248 371.146h86.69c4.14 0 7.5-3.36 7.5-7.5 0-4.15-3.36-7.5-7.5-7.5h-86.7c-4.15 0-7.5 3.35-7.5 7.5 0 4.14 3.35 7.5 7.5 7.5Z"/><path d="M352.15 312.307v-.11c0-4.15-3.36-7.5-7.5-7.5 -4.15 0-7.5 3.35-7.5 7.5v.1c0 4.14 3.35 7.5 7.5 7.5 4.14 0 7.5-3.36 7.5-7.5Z"/><path d="M328.54 312.307v-.11c0-4.15-3.36-7.5-7.5-7.5 -4.15 0-7.5 3.35-7.5 7.5v.1c0 4.14 3.35 7.5 7.5 7.5 4.14 0 7.5-3.36 7.5-7.5Z"/><path d="M304.944 312.307v-.11c0-4.15-3.36-7.5-7.5-7.5 -4.15 0-7.5 3.35-7.5 7.5v.1c0 4.14 3.35 7.5 7.5 7.5 4.14 0 7.5-3.36 7.5-7.5Z"/><path d="M255.999 137.978c38.04 0 68.989-30.95 68.989-68.989C324.988 30.93 294.038 0 255.999 0c-38.05 0-68.989 30.94-68.989 68.989 0 38.04 30.94 68.989 68.989 68.989Zm0-122.978c29.77 0 53.98 24.219 53.98 53.98 0 29.77-24.22 53.98-53.99 53.98 -29.77 0-53.99-24.22-53.99-53.99 0-29.77 24.21-53.989 53.98-53.989Z"/><path d="M240.099 94.44c1.48 1.65 3.53 2.49 5.59 2.49 1.78 0 3.56-.64 5-1.92l20.07-17.982c2.06-1.85 2.94-4.69 2.27-7.38 -.67-2.7-2.76-4.8-5.45-5.48l-5.86-1.48 9.57-8.576c3.08-2.77 3.34-7.51.58-10.6 -2.77-3.09-7.51-3.35-10.6-.59L241.18 60.9c-2.07 1.85-2.95 4.68-2.28 7.38 .66 2.69 2.75 4.79 5.44 5.47l5.85 1.48 -9.58 8.57c-3.09 2.76-3.35 7.506-.59 10.59Z"/><path d="M105.932 125.423c24.91 0 45.19-20.28 45.19-45.191 0-24.92-20.28-45.191-45.191-45.191 -24.92 0-45.2 20.272-45.2 45.191 0 24.91 20.27 45.191 45.19 45.191Zm0-75.39c16.64 0 30.19 13.543 30.19 30.19 0 16.64-13.55 30.19-30.2 30.19s-30.2-13.55-30.2-30.2 13.54-30.2 30.19-30.2Z"/><path d="M95.37 87.732h3.06v3.06c0 4.14 3.35 7.5 7.5 7.5 4.14 0 7.5-3.36 7.5-7.5v-3.07h3.06c4.14 0 7.5-3.36 7.5-7.5 0-4.15-3.36-7.5-7.5-7.5h-3.07v-3.06c0-4.15-3.36-7.5-7.5-7.5 -4.15 0-7.5 3.35-7.5 7.5v3.06h-3.07c-4.15 0-7.5 3.35-7.5 7.5 0 4.14 3.35 7.5 7.5 7.5Z"/><path d="M406.063 125.423c24.91 0 45.19-20.28 45.19-45.191 0-24.92-20.28-45.191-45.2-45.191s-45.19 20.272-45.19 45.191c0 24.91 20.27 45.191 45.19 45.191Zm0-75.39c16.64 0 30.19 13.543 30.19 30.19 0 16.64-13.55 30.19-30.2 30.19s-30.19-13.55-30.19-30.2 13.54-30.2 30.19-30.2Z"/><path d="M395.505 87.732h21.12c4.14 0 7.5-3.36 7.5-7.5 0-4.15-3.36-7.5-7.5-7.5h-21.13c-4.15 0-7.5 3.35-7.5 7.5 0 4.14 3.35 7.5 7.5 7.5Z"/></g></g></svg>