<svg viewBox="0 0 512 512" xmlns="http://www.w3.org/2000/svg"><path fill="#BAEEFC" d="M339.292 310.05c70.74 0 101.17 9.37 101.17 23.42 0 27.17-51.74 9.37-51.74 35.61 0 25.37 121.719 8.43 123.24 36.548 .93 17.24-31.91 21.21-75.32 22.49 -48.31 1.42-104.23-5.63-104.983 16.86 -.8 23.4 48.68 8.88 48.68 36.065 0 41.71-248.75 40.78-248.75 0 0-27.18 49.47-12.66 48.68-36.065 -.77-22.5-56.68-15.45-104.983-16.87 -43.41-1.28-76.25-5.25-75.32-22.5 1.521-28.12 123.24-11.18 123.24-36.548 0-26.24-51.74-8.44-51.74-35.62 0-14.06 30.43-23.43 101.179-23.43Z"/><g fill="#A2E1F8"><path d="M331.684 444.99c.43-12.84 18.83-16.06 43.53-16.72 -39.815-.34-76.91-1.58-77.53 16.71 -.8 23.4 48.68 8.88 48.68 36.065 0 18.83-50.71 28.97-106.322 30.67 67.019 2.04 140.31-8.04 140.31-30.68 0-27.18-49.48-12.66-48.69-36.065Z"/><path d="M388.74 369.089c0-26.24 51.73-8.44 51.73-35.62 0-14.06-30.43-23.43-101.18-23.43h-34c70.74 0 101.17 9.37 101.17 23.42 0 27.17-51.74 9.37-51.74 35.61 0 25.37 121.719 8.43 123.24 36.548 .93 17.24-31.91 21.21-75.32 22.49 -.92.02-1.85.05-2.77.07 12.07.1 24.65.28 36.76-.08 43.41-1.28 76.24-5.25 75.31-22.5 -1.53-28.12-123.24-11.18-123.24-36.548Z"/></g><path fill="none" stroke="#000" stroke-linecap="round" stroke-linejoin="round" stroke-width="15.453" d=""/><path fill="#82D5F2" d="M256 116.43l-72.99 126.41c-32.44 56.18 8.11 126.41 72.98 126.41s105.42-70.23 72.98-126.411Z"/><path fill="#67C6E4" d="M256 346.075c-4.27 0-7.73-3.46-7.73-7.73 0-4.27 3.45-7.73 7.72-7.73 16.5 0 31.27-8.54 39.52-22.83 2.13-3.7 6.85-4.97 10.55-2.83 3.69 2.13 4.96 6.85 2.82 10.55 -11.05 19.12-30.83 30.54-52.91 30.54Z"/><path fill="#BAEEFC" d="M344.59 36.056l-32.57 56.402c-14.48 25.06 3.61 56.4 32.56 56.4 28.94 0 47.03-31.34 32.56-56.402Z"/><path fill="#82D5F2" d="M202.431 0l-22.75 39.4c-10.12 17.51 2.52 39.4 22.75 39.4 20.22 0 32.86-21.9 22.75-39.41Z"/></svg>